<?xml version="1.0" standalone="no"?>
<!DOCTYPE svg PUBLIC "-//W3C//DTD SVG 20010904//EN"
 "http://www.w3.org/TR/2001/REC-SVG-20010904/DTD/svg10.dtd">
<svg version="1.0" xmlns="http://www.w3.org/2000/svg"
 width="260.000000pt" height="260.000000pt" viewBox="0 0 260.000000 260.000000"
 preserveAspectRatio="xMidYMid meet">
<metadata>
Created by potrace 1.11, written by Peter Selinger 2001-2013
</metadata>
<g transform="translate(0.000000,260.000000) scale(0.100000,-0.100000)"
fill="#000000" stroke="none">
<path d="M1282 2285 c4 -21 1 -25 -18 -25 -32 0 -40 -18 -9 -22 l26 -3 -1
-465 0 -465 -443 -3 -444 -2 -11 25 c-16 34 -57 49 -94 34 -53 -22 -63 -75
-23 -114 34 -35 76 -33 108 5 l26 30 443 0 443 0 0 -445 0 -445 -28 0 c-28 0
-28 0 -25 -62 l3 -63 58 -3 57 -3 0 66 c0 63 -1 65 -25 65 l-25 0 0 445 0 445
455 0 455 0 0 -36 c0 -20 3 -34 8 -32 4 2 38 20 75 42 l69 39 -74 42 -73 43
-3 -39 -3 -39 -455 0 -454 0 0 470 0 470 26 0 c14 0 23 4 19 10 -3 6 -15 10
-26 10 -14 0 -19 7 -19 25 0 14 -5 25 -11 25 -7 0 -9 -10 -7 -25z m-937 -941
c27 -11 38 -53 21 -80 -34 -50 -106 -33 -106 26 0 47 38 72 85 54z m1983 -49
c3 -3 -87 -55 -94 -55 -2 0 -4 25 -4 56 l0 56 48 -28 c26 -15 48 -28 50 -29z
m-988 -970 l0 -45 -45 0 -45 0 0 45 0 45 45 0 45 0 0 -45z"/>
<path d="M1695 2010 c-76 -36 -118 -90 -141 -180 -27 -106 -1 -225 64 -293 84
-89 235 -101 325 -26 59 48 112 179 73 179 -8 0 -18 -19 -25 -45 -13 -53 -71
-122 -118 -142 -78 -32 -174 -5 -235 66 -46 54 -62 112 -56 206 6 93 41 155
109 198 37 23 58 28 107 28 84 1 138 -29 172 -94 28 -53 57 -65 45 -19 -9 39
-55 93 -101 119 -52 30 -160 31 -219 3z"/>
<path d="M687 1756 c-59 -146 -107 -270 -107 -275 0 -6 6 -11 14 -11 8 0 28
36 49 88 l35 87 133 0 133 0 34 -87 c20 -53 40 -88 48 -88 8 0 14 6 14 13 -1
6 -47 129 -104 272 -82 207 -107 261 -122 263 -17 2 -35 -34 -127 -262z m187
74 c30 -79 54 -146 52 -147 -2 -2 -55 -2 -119 -1 l-115 3 52 130 c29 72 55
139 59 149 4 10 9 17 12 15 2 -3 29 -69 59 -149z"/>
<path d="M620 835 l0 -277 148 4 c161 3 192 13 236 71 46 62 20 163 -52 197
-17 8 -32 17 -32 20 0 3 13 11 29 18 60 26 77 122 33 182 -35 46 -66 55 -219
58 l-143 3 0 -276z m296 229 c42 -20 57 -45 57 -96 0 -80 -56 -108 -213 -108
l-110 0 0 110 0 110 116 0 c86 0 125 -4 150 -16z m8 -248 c44 -18 66 -52 66
-99 0 -97 -52 -127 -225 -127 l-115 0 0 120 0 120 120 0 c81 0 132 -5 154 -14z"/>
<path d="M1445 1088 c3 -13 39 -135 79 -273 60 -210 75 -250 92 -253 17 -2 27
25 88 243 38 134 73 250 76 255 6 9 71 -201 136 -438 15 -53 21 -62 38 -60 17
3 30 39 92 253 94 322 88 295 67 295 -15 0 -30 -43 -88 -255 -38 -140 -72
-249 -76 -242 -3 7 -37 121 -74 255 -63 221 -71 242 -91 242 -20 0 -27 -21
-89 -242 -37 -134 -71 -248 -74 -255 -4 -7 -38 101 -76 240 -56 200 -74 252
-88 255 -14 3 -17 -1 -12 -20z"/>
</g>
</svg>
