<?xml version="1.0" encoding="iso-8859-1"?>
<!-- Generator: Adobe Illustrator 19.0.0, SVG Export Plug-In . SVG Version: 6.00 Build 0)  -->
<svg version="1.1" id="Layer_1" xmlns="http://www.w3.org/2000/svg" xmlns:xlink="http://www.w3.org/1999/xlink" x="0px" y="0px"
	 viewBox="0 0 512.001 512.001" style="enable-background:new 0 0 512.001 512.001;" xml:space="preserve">
<g transform="translate(0 -1)">
  <path fill="#2b323a" d="M74.301,203.311l25.6-25.6c3.333-3.332,3.333-8.735,0-12.068c-3.332-3.333-8.735-3.333-12.068,0l-25.6,25.6
    c-3.332,3.333-3.332,8.735,0,12.068C65.566,206.644,70.969,206.644,74.301,203.311z"/>
  <path fill="#2b323a" d="M328.933,334.73c-42.546,21.535-88.107,21.499-128.695,0.068c-6.872-3.629-14.622,3.069-12.028,10.395
    c12.285,34.689,40.583,56.885,76.311,56.885c35.727,0,64.026-22.196,76.31-56.885
    C343.401,337.935,335.803,331.253,328.933,334.73z M312.251,362.252c-11.676,14.452-28.262,22.759-47.731,22.759
    c-20.596,0-37.965-9.295-49.708-25.329c32.268,11.125,66.539,11.016,99.664-0.342L312.251,362.252z"/>
  <path fill="#2b323a" d="M490.382,199.917c0.272-1.588,1.243-4.686,3.025-7.663c2.538-4.239,5.74-6.496,10.275-6.61
    c4.628-0.117,8.318-3.902,8.318-8.531v-28.689c0-3.327-1.934-6.351-4.954-7.747c-1.411-0.652-3.972-1.709-7.636-3.034
    c-5.979-2.162-12.961-4.313-20.897-6.313c-9.648-2.432-19.656-4.417-29.99-5.928l29.029-78.775
    c2.517-6.831-4.126-13.475-10.957-10.958L360.208,74.868c-29.178-14.676-61.786-22.659-95.69-22.659
    c-33.898,0-66.501,7.981-95.678,22.654L62.455,35.673c-6.831-2.516-13.474,4.127-10.957,10.957l28.303,76.822
    c-16.204,1.512-31.669,4.188-46.313,7.879c-7.936,2-14.918,4.151-20.897,6.313c-3.664,1.325-6.226,2.383-7.636,3.034
    C1.934,142.074,0,145.097,0,148.425v28.689c0,4.629,3.691,8.414,8.318,8.531c4.534,0.114,7.736,2.371,10.275,6.61
    c1.782,2.977,2.753,6.075,3.05,7.815c4.004,26.351,10.838,46.682,22.081,62.01c-18.498,4.802-33.201,12.798-41.882,23.77
    c-2.924,3.696-2.299,9.062,1.397,11.987c3.696,2.924,9.063,2.299,11.987-1.397c6.508-8.224,19.393-14.841,36.336-18.708
    c0.681,12.091,2.379,23.908,4.99,35.376c-23.385,6.023-43.16,17.597-54.759,32.537c-2.89,3.723-2.215,9.083,1.508,11.973
    c3.723,2.89,9.083,2.215,11.973-1.508c9.196-11.846,25.765-21.433,45.723-26.531c27.197,86.563,108.061,149.297,203.524,149.297
    c93.626,0,173.156-60.314,201.876-144.205c12.997,5.372,23.625,12.803,30.33,21.439c2.89,3.723,8.251,4.398,11.973,1.508
    c3.723-2.89,4.398-8.251,1.508-11.973c-8.871-11.427-22.528-20.882-38.921-27.395c2.903-11.424,4.881-23.217,5.857-35.294
    c8.735,3.644,15.481,8.237,19.632,13.484c2.924,3.696,8.291,4.321,11.987,1.397c3.696-2.924,4.321-8.291,1.397-11.987
    c-7.127-9.007-18.305-16.012-32.312-20.891c-0.017-5.82-0.294-11.703-0.801-17.679
    C483.28,234.276,487.541,218.614,490.382,199.917z M455.144,58.077l-24.053,65.273c-2.718-0.244-5.451-0.465-8.21-0.642
    c-12.849-14.244-27.419-26.587-43.302-36.789L455.144,58.077z M355.491,91.627c0.058,0.032,0.107,0.073,0.166,0.104
    c15.46,8.124,29.766,18.344,42.575,30.32c-31.685,0.304-65.761,5.018-101.818,15.224c-0.335,0.094-0.669,0.185-1.004,0.281
    c-1.905,0.544-3.817,1.11-5.733,1.685c-0.67,0.201-1.338,0.392-2.008,0.597c-1.841,0.562-3.69,1.148-5.54,1.738
    c-0.617,0.197-1.231,0.38-1.849,0.58c-7.866,2.542-16.07,3.843-24.278,3.843s-16.411-1.301-24.281-3.845
    c-2.308-0.747-4.611-1.469-6.909-2.172c-0.819-0.251-1.633-0.485-2.45-0.73c-1.339-0.401-2.679-0.807-4.014-1.193
    c-30.906-8.964-60.369-13.888-88.14-15.46c12.956-12.211,27.471-22.617,43.184-30.873c0.071-0.037,0.129-0.085,0.198-0.124
    c27.573-14.451,58.607-22.326,90.928-22.326C296.859,69.275,327.909,77.161,355.491,91.627z M73.904,58.078l75.565,27.836
    c-15.64,10.045-30.011,22.164-42.718,36.133c-3.09,0.034-6.148,0.123-9.191,0.24L73.904,58.078z M33.236,183.487
    c-3.873-6.468-9.265-11.28-16.169-13.52V154.18c0.419-0.156,0.862-0.318,1.327-0.486c5.453-1.972,11.892-3.955,19.264-5.813
    c16.509-4.161,34.146-6.974,52.807-8.155c0.582,0.091,1.179,0.129,1.785,0.096c6.049-0.329,12.1-0.499,18.216-0.499
    c0.022,0,0.043-0.003,0.064-0.003c31.857,0.023,65.299,4.514,100.075,14.284c0.376,0.106,0.75,0.208,1.126,0.315
    c1.796,0.51,3.599,1.045,5.402,1.584c0.736,0.22,1.469,0.431,2.206,0.656c1.62,0.493,3.247,1.011,4.873,1.528
    c0.752,0.239,1.5,0.466,2.254,0.71c9.564,3.091,19.538,4.673,29.533,4.673s19.97-1.582,29.53-4.672
    c2.034-0.658,4.059-1.293,6.08-1.915c0.449-0.138,0.898-0.276,1.346-0.412c1.732-0.527,3.459-1.04,5.181-1.541
    c0.994-0.288,1.986-0.568,2.978-0.848c0.843-0.238,1.685-0.474,2.526-0.707c40.446-11.123,78.921-15.076,114.977-13.217
    c0.002,0,0.004,0,0.007,0c5.852,0.306,11.573,0.764,17.222,1.372c0.527,0.057,1.049,0.06,1.563,0.021
    c12.856,1.494,25.181,3.768,36.932,6.73c7.373,1.858,13.811,3.841,19.264,5.813c0.466,0.168,0.908,0.331,1.327,0.486v15.787
    c-6.904,2.24-12.296,7.052-16.169,13.52c-3.051,5.096-4.61,10.071-5.231,13.714c-2.74,18.025-6.678,32.585-12.608,44.279
    c-0.055,0.098-0.114,0.191-0.166,0.293c-11.7,22.742-31.968,35.426-68.226,40.595c-0.471,0.066-0.939,0.134-1.416,0.197
    c-0.797,0.108-1.602,0.213-2.415,0.314c-1.24,0.153-2.493,0.3-3.768,0.438c-0.24,0.026-0.473,0.055-0.714,0.081
    c-10.19,1.073-19.772,0.651-28.647-1.002c-15.929-2.967-29.567-9.913-40.29-19.376c-14.044-12.395-23.09-29.102-25.734-46.831
    c-1.812-12.123-6.178-21.173-12.553-27.282c-0.041-0.039-0.084-0.074-0.125-0.113c-0.416-0.394-0.837-0.78-1.269-1.149
    c-0.477-0.407-0.964-0.8-1.46-1.177c-6.322-4.804-12.845-6.391-18.141-6.254c-5.296-0.137-11.819,1.45-18.141,6.254
    c-3.117,2.369-5.838,5.337-8.126,8.897c-3.533,5.495-6.026,12.416-7.282,20.822c-2.714,18.2-12.172,35.325-26.86,47.812
    c-11.139,9.468-25.286,16.266-41.778,18.846c-0.163,0.025-0.324,0.055-0.487,0.079c-0.035,0.005-0.07,0.009-0.104,0.014
    c-7.964,1.192-16.468,1.404-25.442,0.459c-29.182-3.076-48.915-10.474-62.268-22.679c-0.382-0.349-0.783-0.646-1.194-0.91
    c-13.921-13.534-21.43-33.527-25.827-62.457C37.846,193.558,36.287,188.583,33.236,183.487z M455.002,312.994
    c-11.608-2.949-24.09-4.539-36.905-4.485c-4.713,0.02-8.517,3.857-8.497,8.57c0.02,4.713,3.857,8.517,8.569,8.497
    c11.167-0.047,21.992,1.315,31.992,3.795c-26.489,77.059-99.591,132.438-185.641,132.438
    c-87.085,0-160.959-56.75-186.591-135.347c5.185-0.601,10.503-0.909,15.901-0.886c4.713,0.02,8.549-3.784,8.569-8.497
    c0.02-4.713-3.784-8.549-8.497-8.57c-6.991-0.03-13.882,0.435-20.589,1.335c-1.902-8.245-3.294-16.686-4.121-25.294
    c13.743,7.757,30.939,12.687,52.401,15.317c0.027,0.003,0.055,0.007,0.082,0.01c1.424,0.174,2.859,0.342,4.321,0.495
    c10.089,1.061,19.695,0.868,28.747-0.391c22.371-3.109,41.333-12.762,55.675-26.323c15.671-14.814,25.833-34.283,28.915-54.95
    c0.898-6.018,2.483-10.548,4.575-13.882c1.255-1.998,2.692-3.566,4.272-4.766c2.847-2.163,5.692-2.838,7.431-2.779
    c2.521-0.059,5.363,0.616,8.209,2.778c0.262,0.199,0.521,0.409,0.775,0.629c3.83,3.315,6.723,8.994,8.069,18.019
    c2.964,19.873,12.475,38.637,27.134,53.221c14.509,14.437,34.066,24.77,57.314,28.032c9.093,1.277,18.747,1.478,28.888,0.411
    c30.925-3.257,53.337-10.977,69.501-24.616c0.987,0.776,2.154,1.352,3.464,1.635c0.485,0.105,0.955,0.22,1.434,0.329
    C459.661,289.807,457.832,301.597,455.002,312.994z"/>
</g>
</svg>
